<mxfile host="65bd71144e">
    <diagram id="IrDIByyb5Js_FFBrg2lh" name="Page-1">
        <mxGraphModel dx="2354" dy="641" grid="1" gridSize="10" guides="1" tooltips="1" connect="1" arrows="1" fold="1" page="1" pageScale="1" pageWidth="850" pageHeight="1100" math="0" shadow="0">
            <root>
                <mxCell id="0"/>
                <mxCell id="1" parent="0"/>
                <mxCell id="2" value="MOTUS&amp;nbsp;&lt;br&gt;(as a cloudservice)" style="rounded=0;whiteSpace=wrap;html=1;" vertex="1" parent="1">
                    <mxGeometry x="200" y="320" width="400" height="280" as="geometry"/>
                </mxCell>
                <mxCell id="3" value="Payment Service&lt;br&gt;(PayPal)" style="rounded=1;whiteSpace=wrap;html=1;" vertex="1" parent="1">
                    <mxGeometry x="720" y="360" width="120" height="40" as="geometry"/>
                </mxCell>
                <mxCell id="4" value="Analytics Systeml" style="rounded=1;whiteSpace=wrap;html=1;" vertex="1" parent="1">
                    <mxGeometry x="720" y="520" width="120" height="40" as="geometry"/>
                </mxCell>
                <mxCell id="5" value="Build System" style="rounded=1;whiteSpace=wrap;html=1;" vertex="1" parent="1">
                    <mxGeometry x="-40" y="520" width="120" height="40" as="geometry"/>
                </mxCell>
                <mxCell id="6" value="Developer-Machines" style="rounded=1;whiteSpace=wrap;html=1;" vertex="1" parent="1">
                    <mxGeometry x="-40" y="360" width="120" height="40" as="geometry"/>
                </mxCell>
                <mxCell id="8" value="Passanger" style="shape=umlActor;verticalLabelPosition=bottom;verticalAlign=top;html=1;outlineConnect=0;" vertex="1" parent="1">
                    <mxGeometry x="240" y="120" width="30" height="60" as="geometry"/>
                </mxCell>
                <mxCell id="9" value="Driver" style="shape=umlActor;verticalLabelPosition=bottom;verticalAlign=top;html=1;outlineConnect=0;" vertex="1" parent="1">
                    <mxGeometry x="520" y="120" width="30" height="60" as="geometry"/>
                </mxCell>
                <mxCell id="10" value="Mobile&lt;br&gt;Android/iOS" style="rounded=1;whiteSpace=wrap;html=1;" vertex="1" parent="1">
                    <mxGeometry x="340" y="200" width="120" height="40" as="geometry"/>
                </mxCell>
                <mxCell id="11" value="" style="endArrow=none;html=1;exitX=0.25;exitY=0;exitDx=0;exitDy=0;" edge="1" parent="1" source="10">
                    <mxGeometry width="50" height="50" relative="1" as="geometry">
                        <mxPoint x="370" y="330" as="sourcePoint"/>
                        <mxPoint x="280" y="150" as="targetPoint"/>
                    </mxGeometry>
                </mxCell>
                <mxCell id="13" value="" style="endArrow=none;html=1;exitX=0.75;exitY=0;exitDx=0;exitDy=0;" edge="1" parent="1" source="10">
                    <mxGeometry width="50" height="50" relative="1" as="geometry">
                        <mxPoint x="370" y="330" as="sourcePoint"/>
                        <mxPoint x="520" y="150" as="targetPoint"/>
                    </mxGeometry>
                </mxCell>
                <mxCell id="14" value="" style="endArrow=none;startArrow=box;html=1;entryX=0.5;entryY=1;entryDx=0;entryDy=0;exitX=0.5;exitY=0;exitDx=0;exitDy=0;startFill=0;endFill=0;" edge="1" parent="1" source="2" target="10">
                    <mxGeometry width="50" height="50" relative="1" as="geometry">
                        <mxPoint x="380" y="450" as="sourcePoint"/>
                        <mxPoint x="430" y="400" as="targetPoint"/>
                    </mxGeometry>
                </mxCell>
                <mxCell id="15" value="&amp;nbsp;https&amp;nbsp;" style="edgeLabel;html=1;align=center;verticalAlign=middle;resizable=0;points=[];" vertex="1" connectable="0" parent="14">
                    <mxGeometry x="0.44" y="-1" relative="1" as="geometry">
                        <mxPoint x="-1" y="18" as="offset"/>
                    </mxGeometry>
                </mxCell>
                <mxCell id="16" value="" style="endArrow=none;startArrow=box;html=1;entryX=1;entryY=0.5;entryDx=0;entryDy=0;exitX=-0.003;exitY=0.786;exitDx=0;exitDy=0;startFill=0;exitPerimeter=0;endFill=0;" edge="1" parent="1" source="2" target="5">
                    <mxGeometry width="50" height="50" relative="1" as="geometry">
                        <mxPoint x="140" y="650" as="sourcePoint"/>
                        <mxPoint x="140" y="570" as="targetPoint"/>
                    </mxGeometry>
                </mxCell>
                <mxCell id="17" value="&amp;nbsp;https,&lt;br&gt;SSH&amp;nbsp;" style="edgeLabel;html=1;align=center;verticalAlign=middle;resizable=0;points=[];" vertex="1" connectable="0" parent="16">
                    <mxGeometry x="0.44" y="-1" relative="1" as="geometry">
                        <mxPoint x="29" y="1" as="offset"/>
                    </mxGeometry>
                </mxCell>
                <mxCell id="18" value="" style="endArrow=box;startArrow=none;html=1;entryX=1;entryY=0.5;entryDx=0;entryDy=0;exitX=-0.003;exitY=0.786;exitDx=0;exitDy=0;startFill=0;exitPerimeter=0;endFill=0;" edge="1" parent="1">
                    <mxGeometry width="50" height="50" relative="1" as="geometry">
                        <mxPoint x="720.0000000000002" y="379.5799999999999" as="sourcePoint"/>
                        <mxPoint x="601.2" y="379.5" as="targetPoint"/>
                    </mxGeometry>
                </mxCell>
                <mxCell id="19" value="&amp;nbsp;https&amp;nbsp;" style="edgeLabel;html=1;align=center;verticalAlign=middle;resizable=0;points=[];" vertex="1" connectable="0" parent="18">
                    <mxGeometry x="0.44" y="-1" relative="1" as="geometry">
                        <mxPoint x="29" y="1" as="offset"/>
                    </mxGeometry>
                </mxCell>
                <mxCell id="20" value="" style="endArrow=box;startArrow=none;html=1;entryX=1;entryY=0.5;entryDx=0;entryDy=0;exitX=-0.003;exitY=0.786;exitDx=0;exitDy=0;startFill=0;exitPerimeter=0;endFill=0;" edge="1" parent="1">
                    <mxGeometry width="50" height="50" relative="1" as="geometry">
                        <mxPoint x="718.8" y="539.5799999999999" as="sourcePoint"/>
                        <mxPoint x="599.9999999999998" y="539.5" as="targetPoint"/>
                    </mxGeometry>
                </mxCell>
                <mxCell id="21" value="&amp;nbsp;https&amp;nbsp;" style="edgeLabel;html=1;align=center;verticalAlign=middle;resizable=0;points=[];" vertex="1" connectable="0" parent="20">
                    <mxGeometry x="0.44" y="-1" relative="1" as="geometry">
                        <mxPoint x="29" y="1" as="offset"/>
                    </mxGeometry>
                </mxCell>
                <mxCell id="22" value="Third-Party" style="rounded=0;whiteSpace=wrap;html=1;fillColor=none;dashed=1;dashPattern=12 12;verticalAlign=top;" vertex="1" parent="1">
                    <mxGeometry x="700" y="320" width="150" height="260" as="geometry"/>
                </mxCell>
                <mxCell id="23" value="User" style="rounded=0;whiteSpace=wrap;html=1;fillColor=none;dashed=1;dashPattern=12 12;verticalAlign=top;" vertex="1" parent="1">
                    <mxGeometry x="200" y="90" width="400" height="160" as="geometry"/>
                </mxCell>
                <mxCell id="24" value="" style="endArrow=none;startArrow=box;html=1;entryX=1;entryY=0.5;entryDx=0;entryDy=0;exitX=-0.003;exitY=0.786;exitDx=0;exitDy=0;startFill=0;exitPerimeter=0;endFill=0;" edge="1" parent="1">
                    <mxGeometry width="50" height="50" relative="1" as="geometry">
                        <mxPoint x="198.80000000000018" y="379.5799999999999" as="sourcePoint"/>
                        <mxPoint x="80" y="379.5" as="targetPoint"/>
                    </mxGeometry>
                </mxCell>
                <mxCell id="25" value="&amp;nbsp;https,&lt;br&gt;SSH&amp;nbsp;" style="edgeLabel;html=1;align=center;verticalAlign=middle;resizable=0;points=[];" vertex="1" connectable="0" parent="24">
                    <mxGeometry x="0.44" y="-1" relative="1" as="geometry">
                        <mxPoint x="29" y="1" as="offset"/>
                    </mxGeometry>
                </mxCell>
                <mxCell id="28" value="Development" style="rounded=0;whiteSpace=wrap;html=1;fillColor=none;dashed=1;dashPattern=12 12;verticalAlign=top;" vertex="1" parent="1">
                    <mxGeometry x="-50" y="320" width="150" height="250" as="geometry"/>
                </mxCell>
            </root>
        </mxGraphModel>
    </diagram>
</mxfile>